<mxfile host="app.diagrams.net" modified="2023-09-27T14:37:08.996Z" agent="Mozilla/5.0 (Windows NT 10.0; Win64; x64) AppleWebKit/537.36 (KHTML, like Gecko) Chrome/116.0.0.0 Safari/537.36" version="21.8.1" etag="bHavS9qyRNXfLr7STKax" type="github">
  <diagram name="第 1 页" id="0l427KDCx93fFcGH5Uju">
    <mxGraphModel>
      <root>
        <mxCell id="0" />
        <mxCell id="1" parent="0" />
      </root>
    </mxGraphModel>
  </diagram>
</mxfile>
